<?xml version="1.0" encoding="UTF-8"?>
<svg id="Ebene_1" data-name="Ebene 1" xmlns="http://www.w3.org/2000/svg" viewBox="0 0 1102.72 143.84">
    <defs>
        <style>
            .cls-1 {
            fill: #4f46e5;
            stroke: #4f46e5;
            stroke-miterlimit: 10;
            stroke-width: 2px;
            }
        </style>
    </defs>
    <path class="cls-1" d="m33.48,115.46c-5.49,0-10.71-.95-15.67-2.84-4.96-1.89-9.01-4.78-12.13-8.65-3.12-3.88-4.68-8.7-4.68-14.47,0-5.11,1.13-9.1,3.4-11.99,2.27-2.88,5.11-4.89,8.51-6.03,3.4-1.14,6.71-1.7,9.93-1.7-3.03,3.22-5.32,6.52-6.88,9.93-1.56,3.4-2.34,6.67-2.34,9.79s.83,6.22,2.48,9.01c1.65,2.79,4.14,5.06,7.45,6.81,3.31,1.75,7.42,2.62,12.34,2.62,4.26,0,8.39-.71,12.41-2.13,4.02-1.42,7.33-3.55,9.93-6.38,2.6-2.84,3.9-6.38,3.9-10.64,0-3.88-1.11-7.21-3.33-10-2.22-2.79-5.08-5.29-8.58-7.52-3.5-2.22-7.19-4.35-11.06-6.38-3.88-2.03-7.57-4.23-11.06-6.6-3.5-2.36-6.36-5.11-8.58-8.23-2.22-3.12-3.33-6.85-3.33-11.21,0-3.88.97-8.01,2.91-12.41,1.94-4.4,4.7-8.53,8.3-12.41,3.59-3.88,7.94-7.02,13.05-9.43,5.11-2.41,10.78-3.62,17.02-3.62s11.11,1.37,13.76,4.11c2.65,2.74,3.97,6.34,3.97,10.78,0,3.5-.62,7.23-1.84,11.21-1.23,3.97-2.72,7.75-4.47,11.35-1.75,3.6-3.43,6.67-5.04,9.22-2.08-.47-3.64-1.3-4.68-2.48-1.04-1.18-1.56-2.77-1.56-4.75s.4-4.21,1.21-6.67c.8-2.46,1.75-5.01,2.84-7.66,1.09-2.65,2.03-5.22,2.84-7.73.8-2.5,1.21-4.7,1.21-6.6,0-1.7-.5-3.03-1.49-3.97-.99-.94-3-1.42-6.03-1.42-4.54,0-8.7.99-12.48,2.98-3.78,1.99-7.07,4.49-9.86,7.52-2.79,3.03-4.94,6.22-6.45,9.57-1.51,3.36-2.27,6.41-2.27,9.15,0,3.4,1.09,6.31,3.26,8.72,2.17,2.41,4.99,4.61,8.44,6.6,3.45,1.99,7.09,3.97,10.92,5.96,3.83,1.99,7.47,4.21,10.92,6.67,3.45,2.46,6.26,5.39,8.44,8.79,2.17,3.4,3.26,7.57,3.26,12.48s-1.11,9.27-3.33,13.05c-2.22,3.78-5.23,6.97-9.01,9.57-3.78,2.6-7.97,4.59-12.55,5.96-4.59,1.37-9.24,2.06-13.97,2.06Z"/>
    <path class="cls-1" d="m93.76,109.65c-4.16,0-7.52-1.23-10.07-3.69-2.55-2.46-3.83-6.19-3.83-11.21,0-3.88.73-8.7,2.2-14.47,1.46-5.77,3.33-11.72,5.6-17.87-.66-.19-1.44-.35-2.34-.5-.9-.14-1.77-.4-2.62-.78v-4.4c1.51.19,2.77.33,3.76.43.99.1,2.01.19,3.05.28,1.99-5.01,4.14-9.86,6.45-14.54,2.32-4.68,4.63-8.86,6.95-12.55,2.32-3.69,4.51-6.6,6.6-8.72,2.08-2.13,3.92-3.19,5.53-3.19.94,0,1.84.35,2.7,1.06.85.71,1.28,1.73,1.28,3.05,0,1.89-.97,4.59-2.91,8.09-1.94,3.5-4.33,7.59-7.16,12.27-2.84,4.68-5.58,9.67-8.23,14.96h4.4c4.16,0,7.92-.07,11.28-.21,3.36-.14,6.78-.4,10.28-.78v4.68c-5.2.47-9.98.85-14.33,1.13-4.35.28-8.51.47-12.48.57h-1.7c-1.99,4.63-3.71,9.39-5.18,14.25-1.47,4.87-2.2,9.62-2.2,14.25,0,3.88.61,6.62,1.84,8.23,1.23,1.61,3.17,2.41,5.82,2.41,4.73,0,9.57-2.15,14.54-6.45,4.96-4.3,9.29-10.14,12.98-17.52l1.99,1.42c-2.46,5.58-5.51,10.64-9.15,15.18-3.64,4.54-7.59,8.11-11.84,10.71-4.26,2.6-8.65,3.9-13.19,3.9Z"/>
    <path class="cls-1" d="m129.65,109.79c-3.12,0-5.84-1.04-8.16-3.12-2.32-2.08-3.47-5.2-3.47-9.36,0-3.31.76-6.9,2.27-10.78,1.51-3.88,3.59-7.71,6.24-11.49,2.65-3.78,5.67-7.21,9.08-10.28,3.4-3.07,7.04-5.55,10.92-7.45,3.88-1.89,7.75-2.84,11.63-2.84s7.52,1.04,10.35,3.12c2.84,2.08,4.26,4.82,4.26,8.23,0,2.55-.9,4.4-2.7,5.53-1.8,1.13-3.92,1.47-6.38.99.19-.85.35-1.7.5-2.55.14-.85.21-1.75.21-2.69,0-1.89-.38-3.59-1.13-5.11-.76-1.51-2.37-2.27-4.82-2.27-2.65,0-5.34.9-8.08,2.7-2.74,1.8-5.37,4.14-7.87,7.02-2.51,2.89-4.75,6.05-6.74,9.5-1.99,3.45-3.55,6.83-4.68,10.14-1.13,3.31-1.7,6.29-1.7,8.94,0,3.03,1.09,4.54,3.26,4.54s4.58-1.06,7.23-3.19c2.65-2.13,5.32-4.8,8.01-8.01,2.69-3.21,5.27-6.5,7.73-9.86,2.46-3.36,4.59-6.22,6.38-8.58.28-.47.66-.71,1.13-.71.38.1,1.11.31,2.2.64,1.09.33,2.1.83,3.05,1.49.94.66,1.42,1.51,1.42,2.55,0,.95-.4,2.15-1.21,3.62-.8,1.47-1.75,3.07-2.84,4.82-1.09,1.75-2.03,3.5-2.84,5.25-.8,1.75-1.21,3.43-1.21,5.04,0,1.23.33,2.39.99,3.47.66,1.09,1.75,1.63,3.26,1.63,2.27,0,5.46-1.68,9.57-5.04,4.11-3.36,8.3-9.05,12.55-17.09l2.69,2.69c-2.27,5.11-4.99,9.62-8.16,13.55-3.17,3.93-6.5,7-10,9.22-3.5,2.22-7.05,3.33-10.64,3.33-3.88,0-6.76-1.23-8.65-3.69-1.89-2.46-2.93-5.11-3.12-7.94v-.71c-3.78,4.54-7.26,8.13-10.43,10.78-3.17,2.65-6.55,3.97-10.14,3.97Z"/>
    <path class="cls-1" d="m194.46,107.38c-1.8,0-3.62-.45-5.46-1.35-1.84-.9-3.4-2.29-4.68-4.18-1.28-1.89-1.91-4.3-1.91-7.23,0-3.12.76-6.62,2.27-10.5,1.51-3.88,3.57-7.75,6.17-11.63,2.6-3.88,5.62-7.42,9.08-10.64,3.45-3.21,7.11-5.82,10.99-7.8,3.88-1.99,7.8-2.98,11.77-2.98,2.17,0,3.88.35,5.11,1.06,1.23.71,1.84,1.87,1.84,3.47,0,.47-.1,1.02-.28,1.63-.19.62-.66,1.16-1.42,1.63-.38-.57-1.04-.97-1.99-1.21-.95-.23-1.94-.35-2.98-.35-3.12,0-6.1.87-8.94,2.62-2.84,1.75-5.44,4-7.8,6.74-2.37,2.74-4.42,5.72-6.17,8.94-1.75,3.22-3.1,6.31-4.04,9.29-.95,2.98-1.42,5.56-1.42,7.73,0,1.8.38,3.24,1.13,4.33.76,1.09,1.89,1.63,3.4,1.63,2.55,0,5.6-1.49,9.15-4.47s7.18-7.28,10.92-12.91c3.73-5.62,7.11-12.36,10.14-20.21,2.08-5.39,4.26-10.9,6.52-16.52,2.27-5.62,4.54-11.04,6.81-16.24,2.27-5.2,4.51-9.83,6.74-13.9,2.22-4.06,4.35-7.3,6.38-9.72,2.03-2.41,3.9-3.62,5.6-3.62,1.04,0,1.96.4,2.77,1.21.8.8,1.21,1.82,1.21,3.05,0,1.61-.78,4.18-2.34,7.73-1.56,3.55-3.55,7.78-5.96,12.69-2.41,4.92-5.01,10.24-7.8,15.96-2.79,5.72-5.39,11.58-7.8,17.59-2.41,6.01-4.4,11.91-5.96,17.73s-2.34,11.28-2.34,16.38c0,2.27.21,3.81.64,4.61.43.8,1.16,1.21,2.2,1.21,2.08,0,4.4-.8,6.95-2.41,2.55-1.61,5.15-3.99,7.8-7.16,2.65-3.17,5.06-6.97,7.23-11.42l2.69,2.27c-2.08,5.2-4.73,9.79-7.94,13.76-3.22,3.97-6.67,7.07-10.35,9.29-3.69,2.22-7.33,3.33-10.92,3.33-3.88,0-6.57-1.23-8.09-3.69-1.51-2.46-2.27-5.34-2.27-8.65,0-1.51.12-3.05.35-4.61.23-1.56.5-3.1.78-4.61-2.93,4.26-6.03,8.06-9.29,11.42-3.26,3.36-6.45,5.98-9.57,7.87-3.12,1.89-6.1,2.84-8.94,2.84Z"/>
    <path class="cls-1" d="m267.23,109.65c-4.16,0-7.52-1.23-10.07-3.69-2.55-2.46-3.83-6.19-3.83-11.21,0-3.88.73-8.7,2.2-14.47,1.46-5.77,3.33-11.72,5.6-17.87-.66-.19-1.44-.35-2.34-.5-.9-.14-1.77-.4-2.62-.78v-4.4c1.51.19,2.77.33,3.76.43.99.1,2.01.19,3.05.28,1.99-5.01,4.14-9.86,6.45-14.54,2.32-4.68,4.63-8.86,6.95-12.55,2.32-3.69,4.51-6.6,6.6-8.72,2.08-2.13,3.92-3.19,5.53-3.19.94,0,1.84.35,2.7,1.06.85.71,1.28,1.73,1.28,3.05,0,1.89-.97,4.59-2.91,8.09-1.94,3.5-4.33,7.59-7.16,12.27-2.84,4.68-5.58,9.67-8.23,14.96h4.4c4.16,0,7.92-.07,11.28-.21,3.36-.14,6.78-.4,10.28-.78v4.68c-5.2.47-9.98.85-14.33,1.13-4.35.28-8.51.47-12.48.57h-1.7c-1.99,4.63-3.71,9.39-5.18,14.25-1.47,4.87-2.2,9.62-2.2,14.25,0,3.88.61,6.62,1.84,8.23,1.23,1.61,3.17,2.41,5.82,2.41,4.73,0,9.57-2.15,14.54-6.45,4.96-4.3,9.29-10.14,12.98-17.52l1.99,1.42c-2.46,5.58-5.51,10.64-9.15,15.18-3.64,4.54-7.59,8.11-11.84,10.71-4.26,2.6-8.65,3.9-13.19,3.9Z"/>
    <path class="cls-1" d="m369.35,107.52c-3.69,0-6.43-1.09-8.23-3.26-1.8-2.17-2.69-4.77-2.69-7.8,0-2.17.33-4.35.99-6.52.66-2.17,1.32-4.33,1.99-6.45.66-2.13.99-4.04.99-5.74,0-1.61-.31-2.72-.92-3.33-.62-.61-1.4-.92-2.34-.92-2.18,0-4.71,1.66-7.59,4.96-2.89,3.31-6.45,8.13-10.71,14.47-1.51,2.27-2.93,4.66-4.26,7.16-1.33,2.51-2.51,4.61-3.55,6.31-.85,0-1.96-.14-3.33-.43-1.37-.28-2.58-.69-3.62-1.21-1.04-.52-1.56-1.21-1.56-2.06s.47-2.5,1.42-4.96c.94-2.46,2.03-5.32,3.26-8.58,1.23-3.26,2.32-6.48,3.26-9.65.94-3.17,1.42-5.84,1.42-8.01,0-1.32-.24-2.36-.71-3.12-.47-.76-1.23-1.13-2.27-1.13-1.99,0-4.38,1.18-7.16,3.55-2.79,2.36-5.72,5.46-8.79,9.29-3.07,3.83-5.96,8.08-8.65,12.77-2.69,4.68-4.89,9.39-6.6,14.11-1.04,0-2.32-.21-3.83-.64-1.51-.43-2.84-.95-3.97-1.56-1.14-.62-1.7-1.16-1.7-1.63,0-.09.33-1.44.99-4.04.66-2.6,1.47-5.84,2.41-9.72.95-3.88,1.94-7.85,2.98-11.91,1.04-4.06,1.94-7.61,2.69-10.64.28-1.04,1.32-1.96,3.12-2.77,1.79-.8,3.36-1.21,4.68-1.21s2.46.43,3.4,1.28c.94.85,1.42,1.99,1.42,3.4,0,.95-.19,2.32-.57,4.11-.38,1.8-.85,3.83-1.42,6.1,1.99-2.65,4.09-5.27,6.31-7.87,2.22-2.6,4.54-4.94,6.95-7.02,2.41-2.08,4.82-3.73,7.23-4.96,2.41-1.23,4.8-1.84,7.16-1.84,3.5,0,5.86,1.25,7.09,3.76,1.23,2.51,1.84,5.23,1.84,8.16,0,1.23-.1,2.44-.28,3.62-.19,1.18-.45,2.37-.78,3.55-.33,1.18-.78,2.58-1.35,4.18,1.8-2.65,3.76-5.08,5.89-7.3,2.13-2.22,4.42-3.99,6.88-5.32,2.46-1.32,5.06-1.99,7.8-1.99,3.69,0,6.24,1.11,7.66,3.33,1.42,2.22,2.13,4.66,2.13,7.3,0,2.46-.4,5.04-1.21,7.73-.8,2.69-1.61,5.25-2.41,7.66-.8,2.41-1.21,4.47-1.21,6.17,0,.95.23,1.82.71,2.62.47.8,1.42,1.21,2.84,1.21,2.55,0,5.01-1.18,7.38-3.55,2.36-2.36,4.56-5.27,6.6-8.72,2.03-3.45,3.76-6.74,5.18-9.86l2.41,2.98c-1.51,3.88-3.48,7.83-5.89,11.84-2.41,4.02-5.23,7.38-8.44,10.07-3.22,2.7-6.9,4.04-11.06,4.04Z"/>
    <path class="cls-1" d="m405.23,109.36c-6.05,0-10.71-1.63-13.97-4.89s-4.89-7.35-4.89-12.27c0-4.16,1.06-8.58,3.19-13.26,2.13-4.68,4.99-9.08,8.58-13.19,3.59-4.11,7.56-7.45,11.91-10,4.35-2.55,8.7-3.83,13.05-3.83,2.46,0,4.8.64,7.02,1.91,2.22,1.28,3.33,3.81,3.33,7.59s-1.04,6.95-3.12,10.07c-2.08,3.12-4.87,5.91-8.37,8.37-3.5,2.46-7.35,4.47-11.56,6.03-4.21,1.56-8.44,2.58-12.69,3.05-.1.38-.17.78-.21,1.21-.05.43-.07,1.11-.07,2.06,0,.47.07,1.3.21,2.48.14,1.18.54,2.44,1.21,3.76.66,1.33,1.75,2.46,3.26,3.4,1.51.95,3.59,1.42,6.24,1.42,3.97,0,7.97-1.11,11.99-3.33,4.02-2.22,7.8-5.18,11.35-8.86,3.55-3.69,6.5-7.8,8.86-12.34l2.84,2.27c-2.55,5.67-5.84,10.64-9.86,14.89-4.02,4.26-8.46,7.56-13.33,9.93-4.87,2.36-9.86,3.55-14.96,3.55Zm-5.96-25.67c2.46-.28,5.2-1.13,8.23-2.55,3.03-1.42,5.93-3.21,8.72-5.39,2.79-2.17,5.08-4.56,6.88-7.16,1.79-2.6,2.69-5.22,2.69-7.87,0-1.04-.19-1.75-.57-2.13-.38-.38-.99-.57-1.84-.57-2.18,0-4.45.78-6.81,2.34-2.36,1.56-4.68,3.6-6.95,6.1-2.27,2.51-4.3,5.27-6.1,8.3-1.8,3.03-3.22,6.01-4.26,8.94Z"/>
    <path class="cls-1" d="m448.49,107.38c-4.16,0-7.28-1.23-9.36-3.69s-3.12-5.44-3.12-8.94c0-2.17.38-4.92,1.13-8.23.76-3.31,1.82-6.78,3.19-10.42,1.37-3.64,2.95-7.07,4.75-10.28,1.79-3.21,3.73-5.84,5.82-7.87,2.08-2.03,4.16-3.05,6.24-3.05,1.13,0,2.13.35,2.98,1.06.85.71,1.28,1.73,1.28,3.05,0,1.23-.73,3.07-2.2,5.53-1.47,2.46-3.17,5.3-5.11,8.51-1.94,3.22-3.64,6.55-5.11,10-1.47,3.45-2.2,6.74-2.2,9.86s.54,5.04,1.63,6.03c1.09.99,2.67,1.49,4.75,1.49,3.21,0,6.71-1.61,10.5-4.82,3.78-3.21,7.71-8.84,11.77-16.88l2.13,2.27c-3.31,8.32-7.52,14.8-12.62,19.43-5.11,4.63-10.59,6.95-16.45,6.95Zm16.74-63.97c-1.8,0-3.43-.45-4.89-1.35-1.47-.9-2.2-2.29-2.2-4.18,0-2.27,1.23-4.21,3.69-5.82,2.46-1.61,5.01-2.41,7.66-2.41,1.7,0,3.14.38,4.33,1.13,1.18.76,1.77,2.13,1.77,4.11s-1.09,3.9-3.26,5.74c-2.18,1.84-4.54,2.77-7.09,2.77Z"/>
    <path class="cls-1" d="m488.35,110.36c-4.73,0-8.53-.97-11.42-2.91-2.89-1.94-4.94-4.4-6.17-7.38-1.23-2.98-1.84-6.03-1.84-9.15,0-2.74.38-4.87,1.13-6.38.76-1.51,1.7-2.62,2.84-3.33s2.2-1.25,3.19-1.63c.99-.38,1.72-.8,2.2-1.28,2.36-2.46,4.8-5.32,7.3-8.58,2.5-3.26,4.66-6.88,6.45-10.85v-1.42c0-3.78.64-6.45,1.91-8.01,1.28-1.56,2.77-2.34,4.47-2.34,1.13,0,1.96.28,2.48.85.52.57.83,1.23.92,1.99,0,.57-.12,1.23-.35,1.99-.24.76-.35,1.8-.35,3.12,0,2.84.69,6.08,2.06,9.72,1.37,3.64,2.74,7.5,4.11,11.56,1.37,4.07,2.06,8.23,2.06,12.48,0,1.13-.05,2.18-.14,3.12-.1.95-.24,1.84-.43,2.69,2.93-.76,5.82-2.39,8.65-4.89,2.84-2.5,5.53-6.22,8.08-11.13l1.7,1.28c-1.8,5.39-4.4,9.72-7.8,12.98-3.4,3.26-7.38,5.27-11.91,6.03-1.51,3.88-4,6.76-7.45,8.65-3.45,1.89-7.35,2.84-11.7,2.84Zm-.99-6.24c1.89,0,3.64-.47,5.25-1.42,1.61-.94,2.88-2.32,3.83-4.11-3.88-.85-7.38-2.36-10.5-4.54-3.12-2.17-5.53-4.4-7.23-6.67-1.33.28-1.99,1.56-1.99,3.83,0,3.12.9,6.05,2.69,8.79,1.79,2.74,4.44,4.11,7.94,4.11Zm10.21-9.79c.19-.66.31-1.44.35-2.34.05-.9.07-1.58.07-2.06-.1-4.25-.66-8.46-1.7-12.62-1.04-4.16-2.08-8.42-3.12-12.77-1.7,2.93-3.69,6.1-5.96,9.5s-4.4,6.15-6.38,8.23c1.51,2.55,3.73,4.96,6.67,7.23,2.93,2.27,6.29,3.88,10.07,4.82Z"/>
    <path class="cls-1" d="m534.44,109.65c-4.16,0-7.52-1.23-10.07-3.69-2.55-2.46-3.83-6.19-3.83-11.21,0-3.88.73-8.7,2.2-14.47,1.46-5.77,3.33-11.72,5.6-17.87-.66-.19-1.44-.35-2.34-.5-.9-.14-1.77-.4-2.62-.78v-4.4c1.51.19,2.77.33,3.76.43.99.1,2.01.19,3.05.28,1.99-5.01,4.14-9.86,6.45-14.54,2.32-4.68,4.63-8.86,6.95-12.55,2.32-3.69,4.51-6.6,6.6-8.72,2.08-2.13,3.92-3.19,5.53-3.19.94,0,1.84.35,2.7,1.06.85.71,1.28,1.73,1.28,3.05,0,1.89-.97,4.59-2.91,8.09-1.94,3.5-4.33,7.59-7.16,12.27-2.84,4.68-5.58,9.67-8.23,14.96h4.4c4.16,0,7.92-.07,11.28-.21,3.36-.14,6.78-.4,10.28-.78v4.68c-5.2.47-9.98.85-14.33,1.13-4.35.28-8.51.47-12.48.57h-1.7c-1.99,4.63-3.71,9.39-5.18,14.25-1.47,4.87-2.2,9.62-2.2,14.25,0,3.88.61,6.62,1.84,8.23,1.23,1.61,3.17,2.41,5.82,2.41,4.73,0,9.57-2.15,14.54-6.45,4.96-4.3,9.29-10.14,12.98-17.52l1.99,1.42c-2.46,5.58-5.51,10.64-9.15,15.18-3.64,4.54-7.59,8.11-11.84,10.71-4.26,2.6-8.65,3.9-13.19,3.9Z"/>
    <path class="cls-1" d="m578.84,109.36c-6.05,0-10.71-1.63-13.97-4.89-3.26-3.26-4.89-7.35-4.89-12.27,0-4.16,1.06-8.58,3.19-13.26s4.99-9.08,8.58-13.19c3.59-4.11,7.56-7.45,11.91-10,4.35-2.55,8.7-3.83,13.05-3.83,2.46,0,4.8.64,7.02,1.91,2.22,1.28,3.33,3.81,3.33,7.59s-1.04,6.95-3.12,10.07c-2.08,3.12-4.87,5.91-8.37,8.37-3.5,2.46-7.35,4.47-11.56,6.03-4.21,1.56-8.44,2.58-12.69,3.05-.09.38-.17.78-.21,1.21-.05.43-.07,1.11-.07,2.06,0,.47.07,1.3.21,2.48.14,1.18.54,2.44,1.21,3.76.66,1.33,1.75,2.46,3.26,3.4,1.51.95,3.59,1.42,6.24,1.42,3.97,0,7.97-1.11,11.99-3.33,4.02-2.22,7.8-5.18,11.35-8.86,3.55-3.69,6.5-7.8,8.86-12.34l2.84,2.27c-2.55,5.67-5.84,10.64-9.86,14.89-4.02,4.26-8.46,7.56-13.33,9.93-4.87,2.36-9.86,3.55-14.96,3.55Zm-5.96-25.67c2.46-.28,5.2-1.13,8.23-2.55,3.03-1.42,5.93-3.21,8.72-5.39,2.79-2.17,5.08-4.56,6.88-7.16,1.79-2.6,2.7-5.22,2.7-7.87,0-1.04-.19-1.75-.57-2.13-.38-.38-.99-.57-1.84-.57-2.18,0-4.45.78-6.81,2.34-2.36,1.56-4.68,3.6-6.95,6.1-2.27,2.51-4.3,5.27-6.1,8.3-1.8,3.03-3.22,6.01-4.26,8.94Z"/>
    <path class="cls-1" d="m636.99,106.81c-3.5,0-6.34-.92-8.51-2.77-2.18-1.84-3.26-4.33-3.26-7.45,0-2.65.66-5.48,1.99-8.51,1.32-3.02,2.67-6,4.04-8.94,1.37-2.93,2.06-5.53,2.06-7.8s-.71-3.99-2.13-5.46c-1.42-1.46-3.07-2.67-4.96-3.62-2.08,5.2-4.42,10.24-7.02,15.11-2.6,4.87-4.7,8.68-6.31,11.42l-2.13-4.11c1.32-2.46,3.07-5.96,5.25-10.5,2.17-4.54,4.25-9.6,6.24-15.18-.95-.94-1.42-2.22-1.42-3.83,0-2.46.76-4.77,2.27-6.95,1.51-2.17,2.98-3.26,4.4-3.26,1.13,0,1.96.64,2.48,1.91.52,1.28.78,2.15.78,2.62s-.21,1.33-.64,2.55c-.43,1.23-.73,2.13-.92,2.7.09,1.04.92,2.06,2.48,3.05,1.56.99,3.33,2.15,5.32,3.47,1.99,1.33,3.73,2.98,5.25,4.96,1.51,1.99,2.27,4.49,2.27,7.52,0,2.74-.62,5.53-1.84,8.37-1.23,2.84-2.46,5.49-3.69,7.94-1.23,2.46-1.84,4.59-1.84,6.38,0,1.33.35,2.2,1.06,2.62.71.43,1.54.64,2.48.64,2.27,0,4.63-.69,7.09-2.06,2.46-1.37,4.87-3.14,7.23-5.32,2.36-2.17,4.44-4.47,6.24-6.88,1.79-2.41,3.17-4.61,4.11-6.6l3.4,2.55c-1.8,4.07-4.4,8.06-7.8,11.98-3.41,3.93-7.19,7.14-11.35,9.65-4.16,2.5-8.37,3.76-12.62,3.76Z"/>
    <path class="cls-1" d="m678.83,110.36c-4.73,0-8.53-.97-11.42-2.91-2.89-1.94-4.94-4.4-6.17-7.38s-1.84-6.03-1.84-9.15c0-2.74.38-4.87,1.13-6.38.76-1.51,1.7-2.62,2.84-3.33s2.2-1.25,3.19-1.63c.99-.38,1.72-.8,2.2-1.28,2.36-2.46,4.8-5.32,7.31-8.58,2.5-3.26,4.66-6.88,6.45-10.85v-1.42c0-3.78.64-6.45,1.91-8.01,1.28-1.56,2.77-2.34,4.47-2.34,1.13,0,1.96.28,2.48.85.52.57.83,1.23.92,1.99,0,.57-.12,1.23-.36,1.99-.24.76-.35,1.8-.35,3.12,0,2.84.68,6.08,2.06,9.72,1.37,3.64,2.74,7.5,4.11,11.56,1.37,4.07,2.06,8.23,2.06,12.48,0,1.13-.05,2.18-.14,3.12-.09.95-.24,1.84-.42,2.69,2.93-.76,5.82-2.39,8.65-4.89,2.84-2.5,5.53-6.22,8.09-11.13l1.7,1.28c-1.8,5.39-4.4,9.72-7.8,12.98-3.4,3.26-7.38,5.27-11.91,6.03-1.51,3.88-4,6.76-7.45,8.65-3.45,1.89-7.35,2.84-11.7,2.84Zm-.99-6.24c1.89,0,3.64-.47,5.25-1.42,1.61-.94,2.88-2.32,3.83-4.11-3.88-.85-7.38-2.36-10.5-4.54-3.12-2.17-5.53-4.4-7.23-6.67-1.33.28-1.99,1.56-1.99,3.83,0,3.12.9,6.05,2.7,8.79,1.79,2.74,4.44,4.11,7.94,4.11Zm10.21-9.79c.19-.66.31-1.44.35-2.34.05-.9.07-1.58.07-2.06-.1-4.25-.66-8.46-1.7-12.62-1.04-4.16-2.08-8.42-3.12-12.77-1.7,2.93-3.69,6.1-5.96,9.5s-4.4,6.15-6.38,8.23c1.51,2.55,3.74,4.96,6.67,7.23,2.93,2.27,6.29,3.88,10.07,4.82Z"/>
    <path class="cls-1" d="m728.05,111.07c-4.92,0-8.96-1.54-12.13-4.61-3.17-3.07-4.75-7.78-4.75-14.11,0-4.63.9-9.17,2.69-13.62,1.8-4.44,4.21-8.44,7.23-11.98,3.03-3.55,6.41-6.36,10.14-8.44,3.73-2.08,7.54-3.12,11.42-3.12s6.83.99,8.58,2.98c1.75,1.99,2.62,4.3,2.62,6.95s-.64,5.23-1.91,7.73c-1.28,2.51-3,3.76-5.18,3.76-1.8,0-3.26-.9-4.4-2.7.94-.66,1.94-1.89,2.98-3.69,1.04-1.8,1.56-4.11,1.56-6.95,0-.76-.19-1.35-.57-1.77-.38-.43-1.09-.64-2.13-.64-2.37,0-4.85,1.06-7.45,3.19-2.6,2.13-5.01,4.87-7.23,8.23-2.22,3.36-4.02,6.9-5.39,10.64-1.37,3.74-2.06,7.16-2.06,10.28,0,2.65.69,5.08,2.06,7.3,1.37,2.22,4.04,3.33,8.01,3.33,3.59,0,7.33-1.04,11.2-3.12,3.88-2.08,7.52-4.99,10.92-8.72,3.4-3.73,6.15-8.2,8.23-13.4l2.84,2.55c-2.27,5.77-5.41,10.9-9.43,15.39-4.02,4.49-8.46,8.04-13.33,10.64-4.87,2.6-9.72,3.9-14.54,3.9Z"/>
    <path class="cls-1" d="m765.78,108.51c-2.08,0-3.57-1.61-4.47-4.82-.9-3.21-1.35-6.95-1.35-11.21s.73-9.6,2.2-15.74c1.46-6.15,3.45-12.62,5.96-19.43,2.5-6.81,5.29-13.48,8.37-20,3.07-6.52,6.24-12.46,9.5-17.8,3.26-5.34,6.38-9.62,9.36-12.84,2.98-3.21,5.6-4.82,7.87-4.82,1.99,0,3.5,1.09,4.54,3.26,1.04,2.18,1.56,4.45,1.56,6.81,0,2.55-.59,5.7-1.77,9.43-1.18,3.74-2.82,7.73-4.89,11.99-2.08,4.26-4.52,8.44-7.3,12.55-2.79,4.11-5.82,7.87-9.08,11.28-3.26,3.4-6.65,6.15-10.14,8.23-1.23,3.22-2.2,6.22-2.91,9.01-.71,2.79-1.21,5.41-1.49,7.87-.28,2.46-.42,4.87-.42,7.23,0,.47.02.97.07,1.49.05.52.07,1.02.07,1.49.38-.57.99-2.03,1.84-4.4.85-2.36,2.01-5.13,3.48-8.3,1.46-3.17,3.28-6.29,5.46-9.36,2.17-3.07,4.73-5.62,7.66-7.66,2.93-2.03,6.29-3.05,10.07-3.05,3.21,0,5.72.73,7.52,2.2,1.79,1.47,3.07,3.26,3.83,5.39.76,2.13,1.13,4.28,1.13,6.45,0,3.03-.5,5.86-1.49,8.51-.99,2.65-1.99,5.13-2.98,7.45-.99,2.32-1.49,4.52-1.49,6.6,0,1.7.38,2.89,1.13,3.55.76.66,1.65.99,2.7.99,2.08,0,4.51-1.04,7.3-3.12,2.79-2.08,5.58-4.84,8.37-8.3,2.79-3.45,5.18-7.26,7.16-11.42l2.27,2.41c-2.18,4.73-4.73,9.08-7.66,13.05-2.93,3.97-6.15,7.14-9.65,9.5-3.5,2.36-7.28,3.55-11.35,3.55-3.59,0-6.34-.95-8.23-2.84-1.89-1.89-2.84-4.26-2.84-7.09,0-1.99.35-4.18,1.06-6.6.71-2.41,1.39-4.84,2.06-7.3.66-2.46.99-4.68.99-6.67,0-2.27-.5-3.83-1.49-4.68-.99-.85-2.2-1.28-3.62-1.28-2.37,0-4.49.92-6.38,2.77-1.89,1.84-3.59,4.23-5.11,7.16-1.51,2.93-2.93,6.03-4.26,9.29-1.33,3.26-2.65,6.36-3.97,9.29-1.33,2.93-2.72,5.32-4.18,7.16-1.47,1.84-3.15,2.77-5.04,2.77Zm13.33-52.2c2.46-2.17,4.82-4.77,7.09-7.8,2.27-3.02,4.37-6.17,6.31-9.43,1.94-3.26,3.64-6.43,5.11-9.5,1.46-3.07,2.62-5.84,3.48-8.3.85-2.46,1.32-4.35,1.42-5.67v-.43c-.57,0-1.77,1.16-3.62,3.47-1.84,2.32-3.97,5.44-6.38,9.36-2.41,3.93-4.82,8.35-7.23,13.26-2.41,4.92-4.47,9.93-6.17,15.03Z"/>
    <path class="cls-1" d="m837.26,109.79c-3.12,0-5.84-1.04-8.16-3.12-2.32-2.08-3.48-5.2-3.48-9.36,0-3.31.76-6.9,2.27-10.78,1.51-3.88,3.59-7.71,6.24-11.49,2.65-3.78,5.67-7.21,9.08-10.28,3.4-3.07,7.04-5.55,10.92-7.45,3.88-1.89,7.75-2.84,11.63-2.84s7.52,1.04,10.35,3.12c2.84,2.08,4.26,4.82,4.26,8.23,0,2.55-.9,4.4-2.7,5.53-1.8,1.13-3.92,1.47-6.38.99.19-.85.36-1.7.5-2.55.14-.85.21-1.75.21-2.69,0-1.89-.38-3.59-1.13-5.11-.76-1.51-2.37-2.27-4.82-2.27-2.65,0-5.34.9-8.08,2.7-2.74,1.8-5.37,4.14-7.87,7.02-2.51,2.89-4.75,6.05-6.74,9.5-1.99,3.45-3.55,6.83-4.68,10.14-1.13,3.31-1.7,6.29-1.7,8.94,0,3.03,1.09,4.54,3.26,4.54s4.58-1.06,7.23-3.19c2.65-2.13,5.32-4.8,8.01-8.01,2.7-3.21,5.27-6.5,7.73-9.86,2.46-3.36,4.59-6.22,6.38-8.58.28-.47.66-.71,1.13-.71.38.1,1.11.31,2.2.64,1.09.33,2.1.83,3.05,1.49.94.66,1.42,1.51,1.42,2.55,0,.95-.4,2.15-1.21,3.62-.8,1.47-1.75,3.07-2.84,4.82-1.09,1.75-2.03,3.5-2.84,5.25-.8,1.75-1.21,3.43-1.21,5.04,0,1.23.33,2.39.99,3.47.66,1.09,1.75,1.63,3.26,1.63,2.27,0,5.46-1.68,9.57-5.04,4.11-3.36,8.3-9.05,12.55-17.09l2.7,2.69c-2.27,5.11-4.99,9.62-8.16,13.55-3.17,3.93-6.5,7-10,9.22-3.5,2.22-7.05,3.33-10.64,3.33-3.88,0-6.76-1.23-8.65-3.69-1.89-2.46-2.93-5.11-3.12-7.94v-.71c-3.78,4.54-7.26,8.13-10.43,10.78-3.17,2.65-6.55,3.97-10.14,3.97Z"/>
    <path class="cls-1" d="m892.15,142.84c-1.04,0-2.29-.33-3.76-.99-1.46-.66-2.74-1.96-3.83-3.9-1.09-1.94-1.63-4.85-1.63-8.72,0-4.07.69-9.39,2.06-15.96,1.37-6.57,3.26-13.85,5.67-21.84,2.41-7.99,5.25-16.19,8.51-24.61,3.26-8.41,6.76-16.52,10.5-24.32,3.73-7.8,7.61-14.82,11.63-21.06,4.02-6.24,8.01-11.21,11.98-14.89,3.97-3.69,7.8-5.53,11.49-5.53,2.46,0,4.06.73,4.82,2.2.75,1.47,1.13,3.14,1.13,5.04,0,4.07-1.11,8.51-3.33,13.33-2.22,4.82-5.18,9.67-8.86,14.54-3.69,4.87-7.83,9.48-12.41,13.83-4.59,4.35-9.29,8.08-14.11,11.21-.38.95-.76,1.89-1.13,2.84l-1.13,2.84c1.04.38,1.87,1.04,2.48,1.99.61.95.97,1.94,1.06,2.98.76,4.07,1.51,7.68,2.27,10.85.76,3.17,1.91,5.65,3.48,7.45,1.56,1.8,3.81,2.7,6.74,2.7,3.31,0,6.24-1.23,8.79-3.69,2.55-2.46,5.15-5.91,7.8-10.35l3.12,2.27c-3.03,6.05-6.43,10.47-10.21,13.26-3.78,2.79-7.19,4.18-10.21,4.18-1.61,0-3.29-.33-5.04-.99-1.75-.66-3.43-1.61-5.04-2.84-.1,5.86-.78,11.65-2.06,17.38-1.28,5.72-3,10.9-5.18,15.53-2.18,4.63-4.61,8.34-7.3,11.13-2.7,2.79-5.46,4.18-8.3,4.18Zm3.97-8.79c1.04,0,2.15-.9,3.33-2.7,1.18-1.8,2.34-4.16,3.48-7.09,1.13-2.93,2.17-6.17,3.12-9.72.94-3.55,1.7-7.05,2.27-10.5.57-3.45.85-6.6.85-9.43s-.31-5.18-.92-7.3c-.62-2.13-1.68-4.51-3.19-7.16-2.18,6.52-4.11,12.81-5.82,18.86-1.7,6.05-3.03,11.56-3.97,16.52-.95,4.96-1.42,9.1-1.42,12.41,0,4.06.75,6.1,2.27,6.1Zm20-82.83c5.77-5.39,10.68-10.64,14.75-15.74,4.07-5.11,7.16-9.62,9.29-13.55,2.13-3.92,3.19-6.69,3.19-8.3,0-.76-.38-1.13-1.13-1.13-2.27,0-4.87,1.73-7.8,5.18-2.93,3.45-5.96,8.11-9.08,13.97-3.12,5.86-6.19,12.39-9.22,19.57Z"/>
    <path class="cls-1" d="m952.01,109.65c-4.16,0-7.52-1.23-10.07-3.69-2.55-2.46-3.83-6.19-3.83-11.21,0-3.88.73-8.7,2.2-14.47,1.47-5.77,3.33-11.72,5.6-17.87-.66-.19-1.44-.35-2.34-.5-.9-.14-1.77-.4-2.62-.78v-4.4c1.51.19,2.77.33,3.76.43.99.1,2.01.19,3.05.28,1.99-5.01,4.13-9.86,6.45-14.54,2.32-4.68,4.63-8.86,6.95-12.55,2.32-3.69,4.51-6.6,6.6-8.72,2.08-2.13,3.92-3.19,5.53-3.19.94,0,1.84.35,2.7,1.06.85.71,1.28,1.73,1.28,3.05,0,1.89-.97,4.59-2.91,8.09-1.94,3.5-4.33,7.59-7.16,12.27-2.84,4.68-5.58,9.67-8.23,14.96h4.4c4.16,0,7.92-.07,11.28-.21,3.36-.14,6.78-.4,10.28-.78v4.68c-5.2.47-9.98.85-14.33,1.13-4.35.28-8.51.47-12.48.57h-1.7c-1.99,4.63-3.71,9.39-5.18,14.25-1.47,4.87-2.2,9.62-2.2,14.25,0,3.88.61,6.62,1.84,8.23,1.23,1.61,3.17,2.41,5.82,2.41,4.73,0,9.57-2.15,14.54-6.45,4.96-4.3,9.29-10.14,12.98-17.52l1.99,1.42c-2.46,5.58-5.51,10.64-9.15,15.18-3.64,4.54-7.59,8.11-11.84,10.71-4.25,2.6-8.65,3.9-13.19,3.9Z"/>
    <path class="cls-1" d="m996.4,109.36c-6.05,0-10.71-1.63-13.97-4.89-3.26-3.26-4.89-7.35-4.89-12.27,0-4.16,1.06-8.58,3.19-13.26s4.99-9.08,8.58-13.19c3.59-4.11,7.56-7.45,11.91-10,4.35-2.55,8.7-3.83,13.05-3.83,2.46,0,4.8.64,7.02,1.91,2.22,1.28,3.33,3.81,3.33,7.59s-1.04,6.95-3.12,10.07c-2.08,3.12-4.87,5.91-8.37,8.37-3.5,2.46-7.35,4.47-11.56,6.03-4.21,1.56-8.44,2.58-12.69,3.05-.09.38-.17.78-.21,1.21-.05.43-.07,1.11-.07,2.06,0,.47.07,1.3.21,2.48.14,1.18.54,2.44,1.21,3.76.66,1.33,1.75,2.46,3.26,3.4,1.51.95,3.59,1.42,6.24,1.42,3.97,0,7.97-1.11,11.99-3.33,4.02-2.22,7.8-5.18,11.35-8.86,3.55-3.69,6.5-7.8,8.86-12.34l2.84,2.27c-2.55,5.67-5.84,10.64-9.86,14.89-4.02,4.26-8.46,7.56-13.33,9.93-4.87,2.36-9.86,3.55-14.96,3.55Zm-5.96-25.67c2.46-.28,5.2-1.13,8.23-2.55,3.03-1.42,5.93-3.21,8.72-5.39,2.79-2.17,5.08-4.56,6.88-7.16,1.79-2.6,2.7-5.22,2.7-7.87,0-1.04-.19-1.75-.57-2.13-.38-.38-.99-.57-1.84-.57-2.18,0-4.45.78-6.81,2.34-2.36,1.56-4.68,3.6-6.95,6.1-2.27,2.51-4.3,5.27-6.1,8.3-1.8,3.03-3.22,6.01-4.26,8.94Z"/>
    <path class="cls-1" d="m1076.11,105.96c-3.69,0-6.5-.92-8.44-2.77-1.94-1.84-2.91-4.18-2.91-7.02,0-1.89.33-3.9.99-6.03.66-2.13,1.32-4.28,1.99-6.45.66-2.17.99-4.26.99-6.24s-.5-3.52-1.49-4.33c-.99-.8-2.15-1.21-3.48-1.21-2.84,0-5.74,1.16-8.72,3.47-2.98,2.32-5.86,5.23-8.65,8.72-2.79,3.5-5.41,7.14-7.87,10.92-2.46,3.78-4.59,7.19-6.38,10.21-1.8,0-3.5-.31-5.11-.92-1.61-.62-2.98-1.68-4.11-3.19.09-.47.64-1.91,1.63-4.33s2.11-5.29,3.33-8.65c1.23-3.35,2.32-6.88,3.26-10.57.94-3.69,1.42-7.04,1.42-10.07.66-.76,1.68-1.51,3.05-2.27,1.37-.76,2.81-1.13,4.33-1.13,3.31,0,4.96,1.42,4.96,4.26,0,1.13-.21,2.81-.64,5.04-.43,2.22-1.02,4.75-1.77,7.59,2.46-3.31,5.15-6.43,8.08-9.36,2.93-2.93,5.98-5.32,9.15-7.16,3.17-1.84,6.36-2.77,9.57-2.77,4.07,0,7.07,1.37,9.01,4.11,1.94,2.74,2.91,5.77,2.91,9.08,0,2.84-.47,5.49-1.42,7.94-.95,2.46-1.87,4.78-2.77,6.95-.9,2.18-1.35,4.3-1.35,6.38,0,1.51.35,2.58,1.06,3.19.71.62,1.49.92,2.34.92,2.27,0,4.63-1.09,7.09-3.26,2.46-2.17,4.8-4.94,7.02-8.3,2.22-3.35,4.18-6.74,5.89-10.14l2.41,1.99c-1.99,4.63-4.23,8.86-6.74,12.69-2.51,3.83-5.3,6.9-8.37,9.22-3.07,2.32-6.5,3.47-10.28,3.47Z"/>
</svg>
